<!--?xml version="1.0" standalone="no"?-->
              <svg id="sw-js-blob-svg" viewBox="0 0 100 100" xmlns="http://www.w3.org/2000/svg" version="1.1">
                    <defs> 
                        <linearGradient id="sw-gradient" x1="0" x2="1" y1="1" y2="0">
                            <stop id="stop1" stop-color="rgba(34.372, 0, 255, 1)" offset="0%"></stop>
                            <stop id="stop2" stop-color="rgba(142.616, 150.31, 255, 1)" offset="100%"></stop>
                        </linearGradient>
                    </defs>
                <path fill="url(#sw-gradient)" d="M16.8,-32.7C20.7,-27,21.8,-20.1,25.8,-14.5C29.8,-8.8,36.6,-4.4,36.4,-0.1C36.2,4.2,29.1,8.5,22.9,10.3C16.8,12.1,11.5,11.5,7.9,12.6C4.2,13.6,2.1,16.2,-2.3,20.2C-6.8,24.3,-13.6,29.8,-17.4,28.8C-21.1,27.9,-21.9,20.5,-26.6,14.6C-31.2,8.7,-39.8,4.4,-43.1,-1.9C-46.4,-8.2,-44.5,-16.4,-40.4,-23.2C-36.2,-30,-29.9,-35.3,-22.8,-39.2C-15.7,-43.1,-7.8,-45.5,-0.7,-44.4C6.5,-43.2,13,-38.5,16.8,-32.7Z" width="100%" height="100%" transform="translate(50 50)" stroke-width="0" style="transition: all 0.3s ease 0s;" stroke="url(#sw-gradient)"></path>
              </svg>